<svg width="32" height="32" viewBox="0 0 32 32" fill="none" xmlns="http://www.w3.org/2000/svg">
<path d="M17.5 3.13916C17.8843 3.09795 18.33 3.1786 18.7002 3.28369C19.5379 3.52144 20.2181 4.03051 20.6221 4.75732C21.0418 5.50242 21.1226 6.37334 20.8457 7.17432C20.4941 8.16205 19.7404 8.65825 18.7988 9.11475L18.8096 11.9956C19.4825 12.1868 20.1371 12.4039 20.748 12.7339C22.1522 13.4923 23.1128 14.7709 23.5156 16.2261C23.9413 17.752 23.6994 19.3738 22.8428 20.7339C22.0571 21.9666 20.8044 22.8772 19.3047 23.2261C17.3452 23.6823 15.6832 23.1883 13.999 22.2554C13.2546 22.997 12.5189 23.7474 11.793 24.5054C12.1175 25.2187 12.225 25.9672 12.0098 26.7251C11.7993 27.466 11.2421 28.1008 10.5293 28.4761C9.73064 28.8972 8.82089 28.9742 7.94531 28.7407C7.07627 28.509 6.34564 28.0071 5.9209 27.2534C5.50289 26.5125 5.46732 25.6441 5.73828 24.853C6.0466 23.954 6.67475 23.3997 7.55762 22.9888C8.50799 22.6424 9.29398 22.7565 10.2217 23.0679C10.9941 22.3105 11.7216 21.5149 12.502 20.7642C11.6443 19.197 11.3666 17.8621 11.8125 16.1353C10.8415 15.7129 9.90515 15.2214 8.93359 14.7983C8.41443 15.3019 7.77943 15.6473 7.03418 15.7642C6.14559 15.9034 5.20891 15.677 4.47852 15.1909C3.75475 14.7024 3.27804 13.9579 3.16113 13.1323C3.04121 12.3318 3.26816 11.4496 3.81836 10.8179C4.38579 10.1664 5.26621 9.77378 6.15527 9.68701C7.02894 9.60774 7.90042 9.85559 8.57715 10.3765C9.44236 11.0517 9.69194 11.8908 9.79688 12.8911C10.7178 13.4172 11.7728 13.8227 12.7324 14.2925C13.9807 12.9175 14.8933 12.4841 16.7129 11.9614L16.7139 9.10205C16.3881 8.98058 16.0631 8.83259 15.7793 8.63818C15.0614 8.14335 14.59 7.39774 14.4736 6.57275C14.3662 5.7523 14.6145 4.9257 15.1641 4.27686C15.7649 3.57454 16.5683 3.2541 17.5 3.13916ZM21.5127 17.3618C21.3276 15.395 19.473 13.9364 17.3613 14.0962C15.2304 14.2577 13.6472 16.0047 13.834 17.9888C14.0208 19.9735 15.9057 21.4369 18.0342 21.2505C20.1437 21.0652 21.6977 19.3284 21.5127 17.3618Z" fill="#764191"/>
<path d="M27.6168 12.5859C27.7069 12.5818 27.7943 12.5806 27.884 12.5926C28.1641 12.6305 28.4401 12.7565 28.5944 12.9857C28.7581 13.2288 28.7805 13.5525 28.8029 13.8342C28.914 15.2281 28.8315 16.6781 28.8311 18.0769C28.8307 19.2193 28.9666 20.7684 28.739 21.8685C28.6673 22.2142 28.4212 22.3796 28.1265 22.5667C28.0143 22.5793 27.8968 22.5938 27.7836 22.5878C27.5307 22.5745 27.2911 22.4695 27.1276 22.2897C26.9658 22.1117 26.9705 21.7544 26.9562 21.5311C26.8534 19.9277 26.9403 18.2731 26.9419 16.6648C26.9428 15.751 26.8079 14.0015 27.0142 13.1859C27.0879 12.8942 27.3702 12.7413 27.6168 12.5859Z" fill="#764191"/>
<path d="M25.0355 14.8252C25.339 14.8773 25.6076 14.9836 25.7844 15.2292C26.0572 15.6081 26.0646 19.3204 25.928 19.8503C25.8532 20.1399 25.5842 20.2811 25.3293 20.4205C25.0372 20.4042 24.6534 20.3801 24.4583 20.1441C24.1681 19.7935 24.1922 15.8481 24.3574 15.3533C24.4534 15.0658 24.7706 14.9443 25.0355 14.8252Z" fill="#764191"/>
</svg>
