<svg width="32" height="32" viewBox="0 0 32 32" fill="none" xmlns="http://www.w3.org/2000/svg">
<path d="M17.5 3.13958C17.8843 3.09837 18.33 3.17902 18.7002 3.28411C19.5379 3.52187 20.2181 4.03092 20.6221 4.75775C21.0418 5.50284 21.1226 6.37377 20.8457 7.17474C20.4941 8.16246 19.7404 8.65867 18.7988 9.11517L18.8096 11.996C19.4825 12.1872 20.1371 12.4044 20.748 12.7343C22.1523 13.4927 23.1128 14.7714 23.5156 16.2265C23.9413 17.7525 23.6994 19.3742 22.8428 20.7343C22.0571 21.967 20.8044 22.8776 19.3047 23.2265C17.3452 23.6827 15.6832 23.1887 13.999 22.2558C13.2546 22.9974 12.5189 23.7478 11.793 24.5058C12.1175 25.2191 12.225 25.9676 12.0098 26.7255C11.7993 27.4664 11.2421 28.1012 10.5293 28.4765C9.73065 28.8976 8.82089 28.9746 7.94531 28.7411C7.07627 28.5094 6.34564 28.0076 5.9209 27.2538C5.50288 26.5129 5.46733 25.6445 5.73828 24.8534C6.0466 23.9544 6.67476 23.4001 7.55762 22.9892C8.50799 22.6428 9.29397 22.7569 10.2217 23.0683C10.9941 22.311 11.7216 21.5153 12.502 20.7646C11.6443 19.1975 11.3666 17.8625 11.8125 16.1357C10.8415 15.7133 9.90514 15.2218 8.93359 14.7988C8.41443 15.3023 7.77943 15.6478 7.03418 15.7646C6.14559 15.9039 5.20891 15.6774 4.47852 15.1913C3.75475 14.7028 3.27804 13.9583 3.16113 13.1327C3.0412 12.3323 3.26815 11.4501 3.81836 10.8183C4.38579 10.1668 5.26621 9.77322 6.15527 9.68646C7.02892 9.60721 7.90044 9.85602 8.57715 10.3769C9.44237 11.0521 9.69194 11.8912 9.79688 12.8915C10.7178 13.4176 11.7728 13.8232 12.7324 14.2929C13.9808 12.9179 14.8933 12.4845 16.7129 11.9618L16.7139 9.10247C16.3881 8.981 16.0631 8.83301 15.7793 8.63861C15.0614 8.14377 14.59 7.39816 14.4736 6.57318C14.3662 5.75272 14.6145 4.92613 15.1641 4.27728C15.7649 3.57496 16.5683 3.25453 17.5 3.13958ZM21.5127 17.3622C21.3276 15.3955 19.473 13.9368 17.3613 14.0966C15.2304 14.2581 13.6472 16.0051 13.834 17.9892C14.0208 19.9739 15.9057 21.4373 18.0342 21.2509C20.1437 21.0657 21.6977 19.3288 21.5127 17.3622Z" fill="white"/>
<path d="M27.6168 12.5856C27.7069 12.5815 27.7943 12.5803 27.884 12.5923C28.1641 12.6302 28.4401 12.7562 28.5944 12.9854C28.7581 13.2285 28.7805 13.5522 28.8029 13.8339C28.914 15.2278 28.8315 16.6778 28.8311 18.0766C28.8307 19.219 28.9666 20.7681 28.739 21.8682C28.6673 22.2139 28.4212 22.3793 28.1265 22.5664C28.0143 22.579 27.8968 22.5935 27.7836 22.5875C27.5307 22.5742 27.2911 22.4692 27.1276 22.2894C26.9658 22.1114 26.9705 21.7541 26.9562 21.5308C26.8534 19.9274 26.9403 18.2728 26.9419 16.6645C26.9428 15.7507 26.8079 14.0012 27.0142 13.1856C27.0879 12.8939 27.3702 12.741 27.6168 12.5856Z" fill="white"/>
<path d="M25.0355 14.8251C25.339 14.8772 25.6076 14.9835 25.7844 15.2291C26.0572 15.608 26.0646 19.3203 25.928 19.8502C25.8532 20.1398 25.5842 20.281 25.3293 20.4204C25.0372 20.4041 24.6534 20.38 24.4583 20.144C24.1681 19.7934 24.1922 15.848 24.3574 15.3532C24.4534 15.0657 24.7706 14.9442 25.0355 14.8251Z" fill="white"/>
</svg>
